<svg width="1200" height="900" xmlns="http://www.w3.org/2000/svg">
  <rect width="100%" height="100%" fill="#f5f5f5"/>
  <text x="60" y="30" font-family="Arial, sans-serif" font-size="18" font-weight="bold" fill="#333">
    Funkcja celu: 7408 | Wierzcholki w cyklu: 144 / 200
  </text>
  <line x1="140.301" y1="658.779" x2="151.967" y2="623.24"
        stroke="#3498db" stroke-width="2.5" />
  <line x1="151.967" y1="623.24" x2="215.177" y2="598.011"
        stroke="#3498db" stroke-width="2.5" />
  <line x1="215.177" y1="598.011" x2="227.385" y2="576.579"
        stroke="#3498db" stroke-width="2.5" />
  <line x1="227.385" y1="576.579" x2="237.151" y2="553.791"
        stroke="#3498db" stroke-width="2.5" />
  <line x1="237.151" y1="553.791" x2="206.225" y2="504.145"
        stroke="#3498db" stroke-width="2.5" />
  <line x1="206.225" y1="504.145" x2="192.931" y2="490.852"
        stroke="#3498db" stroke-width="2.5" />
  <line x1="192.931" y1="490.852" x2="146.812" y2="482.17"
        stroke="#3498db" stroke-width="2.5" />
  <line x1="146.812" y1="482.17" x2="192.389" y2="455.313"
        stroke="#3498db" stroke-width="2.5" />
  <line x1="192.389" y1="455.313" x2="247.189" y2="450.701"
        stroke="#3498db" stroke-width="2.5" />
  <line x1="247.189" y1="450.701" x2="266.451" y2="455.041"
        stroke="#3498db" stroke-width="2.5" />
  <line x1="266.451" y1="455.041" x2="248.817" y2="430.354"
        stroke="#3498db" stroke-width="2.5" />
  <line x1="248.817" y1="430.354" x2="307.144" y2="394.002"
        stroke="#3498db" stroke-width="2.5" />
  <line x1="307.144" y1="394.002" x2="291.409" y2="316.413"
        stroke="#3498db" stroke-width="2.5" />
  <line x1="291.409" y1="316.413" x2="311.756" y2="308.546"
        stroke="#3498db" stroke-width="2.5" />
  <line x1="311.756" y1="308.546" x2="382.291" y2="312.344"
        stroke="#3498db" stroke-width="2.5" />
  <line x1="382.291" y1="312.344" x2="425.426" y2="321.839"
        stroke="#3498db" stroke-width="2.5" />
  <line x1="425.426" y1="321.839" x2="424.612" y2="353.58"
        stroke="#3498db" stroke-width="2.5" />
  <line x1="424.612" y1="353.58" x2="466.119" y2="347.611"
        stroke="#3498db" stroke-width="2.5" />
  <line x1="466.119" y1="347.611" x2="555.644" y2="313.7"
        stroke="#3498db" stroke-width="2.5" />
  <line x1="555.644" y1="313.7" x2="578.433" y2="340.286"
        stroke="#3498db" stroke-width="2.5" />
  <line x1="578.433" y1="340.286" x2="556.729" y2="377.182"
        stroke="#3498db" stroke-width="2.5" />
  <line x1="556.729" y1="377.182" x2="600.95" y2="398.342"
        stroke="#3498db" stroke-width="2.5" />
  <line x1="600.95" y1="398.342" x2="632.419" y2="395.629"
        stroke="#3498db" stroke-width="2.5" />
  <line x1="632.419" y1="395.629" x2="677.182" y2="368.772"
        stroke="#3498db" stroke-width="2.5" />
  <line x1="677.182" y1="368.772" x2="708.38" y2="358.463"
        stroke="#3498db" stroke-width="2.5" />
  <line x1="708.38" y1="358.463" x2="715.705" y2="420.045"
        stroke="#3498db" stroke-width="2.5" />
  <line x1="715.705" y1="420.045" x2="780.543" y2="433.067"
        stroke="#3498db" stroke-width="2.5" />
  <line x1="780.543" y1="433.067" x2="783.527" y2="456.398"
        stroke="#3498db" stroke-width="2.5" />
  <line x1="783.527" y1="456.398" x2="779.186" y2="459.653"
        stroke="#3498db" stroke-width="2.5" />
  <line x1="779.186" y1="459.653" x2="756.398" y2="507.129"
        stroke="#3498db" stroke-width="2.5" />
  <line x1="756.398" y1="507.129" x2="755.041" y2="506.858"
        stroke="#3498db" stroke-width="2.5" />
  <line x1="755.041" y1="506.858" x2="734.695" y2="514.182"
        stroke="#3498db" stroke-width="2.5" />
  <line x1="734.695" y1="514.182" x2="659.005" y2="579.292"
        stroke="#3498db" stroke-width="2.5" />
  <line x1="659.005" y1="579.292" x2="655.75" y2="594.755"
        stroke="#3498db" stroke-width="2.5" />
  <line x1="655.75" y1="594.755" x2="663.888" y2="633.549"
        stroke="#3498db" stroke-width="2.5" />
  <line x1="663.888" y1="633.549" x2="691.017" y2="610.219"
        stroke="#3498db" stroke-width="2.5" />
  <line x1="691.017" y1="610.219" x2="751.243" y2="576.307"
        stroke="#3498db" stroke-width="2.5" />
  <line x1="751.243" y1="576.307" x2="784.612" y2="573.866"
        stroke="#3498db" stroke-width="2.5" />
  <line x1="784.612" y1="573.866" x2="833.173" y2="617.001"
        stroke="#3498db" stroke-width="2.5" />
  <line x1="833.173" y1="617.001" x2="909.947" y2="590.143"
        stroke="#3498db" stroke-width="2.5" />
  <line x1="909.947" y1="590.143" x2="915.916" y2="576.85"
        stroke="#3498db" stroke-width="2.5" />
  <line x1="915.916" y1="576.85" x2="917.272" y2="529.646"
        stroke="#3498db" stroke-width="2.5" />
  <line x1="917.272" y1="529.646" x2="907.234" y2="523.677"
        stroke="#3498db" stroke-width="2.5" />
  <line x1="907.234" y1="523.677" x2="906.42" y2="515.539"
        stroke="#3498db" stroke-width="2.5" />
  <line x1="906.42" y1="515.539" x2="904.793" y2="484.883"
        stroke="#3498db" stroke-width="2.5" />
  <line x1="904.793" y1="484.883" x2="932.193" y2="461.281"
        stroke="#3498db" stroke-width="2.5" />
  <line x1="932.193" y1="461.281" x2="894.755" y2="438.764"
        stroke="#3498db" stroke-width="2.5" />
  <line x1="894.755" y1="438.764" x2="853.248" y2="419.503"
        stroke="#3498db" stroke-width="2.5" />
  <line x1="853.248" y1="419.503" x2="843.21" y2="404.31"
        stroke="#3498db" stroke-width="2.5" />
  <line x1="843.21" y1="404.31" x2="859.759" y2="337.302"
        stroke="#3498db" stroke-width="2.5" />
  <line x1="859.759" y1="337.302" x2="969.902" y2="328.621"
        stroke="#3498db" stroke-width="2.5" />
  <line x1="969.902" y1="328.621" x2="1047.22" y2="330.249"
        stroke="#3498db" stroke-width="2.5" />
  <line x1="1047.22" y1="330.249" x2="1099.31" y2="327.536"
        stroke="#3498db" stroke-width="2.5" />
  <line x1="1099.31" y1="327.536" x2="1102.83" y2="350.324"
        stroke="#3498db" stroke-width="2.5" />
  <line x1="1102.83" y1="350.324" x2="1132.4" y2="385.592"
        stroke="#3498db" stroke-width="2.5" />
  <line x1="1132.4" y1="385.592" x2="1139.46" y2="447.445"
        stroke="#3498db" stroke-width="2.5" />
  <line x1="1139.46" y1="447.445" x2="1137.56" y2="453.414"
        stroke="#3498db" stroke-width="2.5" />
  <line x1="1137.56" y1="453.414" x2="1139.73" y2="488.139"
        stroke="#3498db" stroke-width="2.5" />
  <line x1="1139.73" y1="488.139" x2="1043.69" y2="456.669"
        stroke="#3498db" stroke-width="2.5" />
  <line x1="1043.69" y1="456.669" x2="1027.14" y2="491.665"
        stroke="#3498db" stroke-width="2.5" />
  <line x1="1027.14" y1="491.665" x2="999.472" y2="507.129"
        stroke="#3498db" stroke-width="2.5" />
  <line x1="999.472" y1="507.129" x2="998.116" y2="547.822"
        stroke="#3498db" stroke-width="2.5" />
  <line x1="998.116" y1="547.822" x2="1030.13" y2="536.157"
        stroke="#3498db" stroke-width="2.5" />
  <line x1="1030.13" y1="536.157" x2="1029.59" y2="539.955"
        stroke="#3498db" stroke-width="2.5" />
  <line x1="1029.59" y1="539.955" x2="1087.1" y2="572.238"
        stroke="#3498db" stroke-width="2.5" />
  <line x1="1087.1" y1="572.238" x2="1115.86" y2="593.67"
        stroke="#3498db" stroke-width="2.5" />
  <line x1="1115.86" y1="593.67" x2="1115.31" y2="610.49"
        stroke="#3498db" stroke-width="2.5" />
  <line x1="1115.31" y1="610.49" x2="1057.53" y2="634.906"
        stroke="#3498db" stroke-width="2.5" />
  <line x1="1057.53" y1="634.906" x2="1050.2" y2="605.607"
        stroke="#3498db" stroke-width="2.5" />
  <line x1="1050.2" y1="605.607" x2="987.536" y2="638.433"
        stroke="#3498db" stroke-width="2.5" />
  <line x1="987.536" y1="638.433" x2="970.987" y2="651.726"
        stroke="#3498db" stroke-width="2.5" />
  <line x1="970.987" y1="651.726" x2="979.397" y2="697.031"
        stroke="#3498db" stroke-width="2.5" />
  <line x1="979.397" y1="697.031" x2="979.126" y2="730.942"
        stroke="#3498db" stroke-width="2.5" />
  <line x1="979.126" y1="730.942" x2="1008.43" y2="708.968"
        stroke="#3498db" stroke-width="2.5" />
  <line x1="1008.43" y1="708.968" x2="1070.28" y2="701.372"
        stroke="#3498db" stroke-width="2.5" />
  <line x1="1070.28" y1="701.372" x2="1100.93" y2="744.506"
        stroke="#3498db" stroke-width="2.5" />
  <line x1="1100.93" y1="744.506" x2="1086.83" y2="774.619"
        stroke="#3498db" stroke-width="2.5" />
  <line x1="1086.83" y1="774.619" x2="1059.97" y2="752.916"
        stroke="#3498db" stroke-width="2.5" />
  <line x1="1059.97" y1="752.916" x2="1071.91" y2="772.449"
        stroke="#3498db" stroke-width="2.5" />
  <line x1="1071.91" y1="772.449" x2="1067.84" y2="825.622"
        stroke="#3498db" stroke-width="2.5" />
  <line x1="1067.84" y1="825.622" x2="1040.71" y2="839.729"
        stroke="#3498db" stroke-width="2.5" />
  <line x1="1040.71" y1="839.729" x2="1023.35" y2="840"
        stroke="#3498db" stroke-width="2.5" />
  <line x1="1023.35" y1="840" x2="927.581" y2="780.045"
        stroke="#3498db" stroke-width="2.5" />
  <line x1="927.581" y1="780.045" x2="907.234" y2="792.796"
        stroke="#3498db" stroke-width="2.5" />
  <line x1="907.234" y1="792.796" x2="875.222" y2="770.279"
        stroke="#3498db" stroke-width="2.5" />
  <line x1="875.222" y1="770.279" x2="889.601" y2="729.043"
        stroke="#3498db" stroke-width="2.5" />
  <line x1="889.601" y1="729.043" x2="808.214" y2="724.16"
        stroke="#3498db" stroke-width="2.5" />
  <line x1="808.214" y1="724.16" x2="785.426" y2="699.744"
        stroke="#3498db" stroke-width="2.5" />
  <line x1="785.426" y1="699.744" x2="763.723" y2="689.977"
        stroke="#3498db" stroke-width="2.5" />
  <line x1="763.723" y1="689.977" x2="754.499" y2="688.892"
        stroke="#3498db" stroke-width="2.5" />
  <line x1="754.499" y1="688.892" x2="748.531" y2="690.52"
        stroke="#3498db" stroke-width="2.5" />
  <line x1="748.531" y1="690.52" x2="725.742" y2="725.245"
        stroke="#3498db" stroke-width="2.5" />
  <line x1="725.742" y1="725.245" x2="741.748" y2="735.825"
        stroke="#3498db" stroke-width="2.5" />
  <line x1="741.748" y1="735.825" x2="746.089" y2="770.279"
        stroke="#3498db" stroke-width="2.5" />
  <line x1="746.089" y1="770.279" x2="736.323" y2="758.885"
        stroke="#3498db" stroke-width="2.5" />
  <line x1="736.323" y1="758.885" x2="700.241" y2="740.166"
        stroke="#3498db" stroke-width="2.5" />
  <line x1="700.241" y1="740.166" x2="692.645" y2="743.15"
        stroke="#3498db" stroke-width="2.5" />
  <line x1="692.645" y1="743.15" x2="693.459" y2="685.365"
        stroke="#3498db" stroke-width="2.5" />
  <line x1="693.459" y1="685.365" x2="680.437" y2="685.365"
        stroke="#3498db" stroke-width="2.5" />
  <line x1="680.437" y1="685.365" x2="666.33" y2="707.882"
        stroke="#3498db" stroke-width="2.5" />
  <line x1="666.33" y1="707.882" x2="658.734" y2="723.888"
        stroke="#3498db" stroke-width="2.5" />
  <line x1="658.734" y1="723.888" x2="623.466" y2="717.92"
        stroke="#3498db" stroke-width="2.5" />
  <line x1="623.466" y1="717.92" x2="617.227" y2="724.16"
        stroke="#3498db" stroke-width="2.5" />
  <line x1="617.227" y1="724.16" x2="625.908" y2="759.699"
        stroke="#3498db" stroke-width="2.5" />
  <line x1="625.908" y1="759.699" x2="608.274" y2="778.417"
        stroke="#3498db" stroke-width="2.5" />
  <line x1="608.274" y1="778.417" x2="575.991" y2="755.629"
        stroke="#3498db" stroke-width="2.5" />
  <line x1="575.991" y1="755.629" x2="543.979" y2="749.39"
        stroke="#3498db" stroke-width="2.5" />
  <line x1="543.979" y1="749.39" x2="531.228" y2="790.625"
        stroke="#3498db" stroke-width="2.5" />
  <line x1="531.228" y1="790.625" x2="467.747" y2="765.667"
        stroke="#3498db" stroke-width="2.5" />
  <line x1="467.747" y1="765.667" x2="440.618" y2="712.766"
        stroke="#3498db" stroke-width="2.5" />
  <line x1="440.618" y1="712.766" x2="441.161" y2="690.791"
        stroke="#3498db" stroke-width="2.5" />
  <line x1="441.161" y1="690.791" x2="420.814" y2="611.846"
        stroke="#3498db" stroke-width="2.5" />
  <line x1="420.814" y1="611.846" x2="458.252" y2="562.2"
        stroke="#3498db" stroke-width="2.5" />
  <line x1="458.252" y1="562.2" x2="439.533" y2="555.961"
        stroke="#3498db" stroke-width="2.5" />
  <line x1="439.533" y1="555.961" x2="374.966" y2="587.702"
        stroke="#3498db" stroke-width="2.5" />
  <line x1="374.966" y1="587.702" x2="390.43" y2="559.759"
        stroke="#3498db" stroke-width="2.5" />
  <line x1="390.43" y1="559.759" x2="405.622" y2="506.315"
        stroke="#3498db" stroke-width="2.5" />
  <line x1="405.622" y1="506.315" x2="345.938" y2="447.174"
        stroke="#3498db" stroke-width="2.5" />
  <line x1="345.938" y1="447.174" x2="303.888" y2="465.622"
        stroke="#3498db" stroke-width="2.5" />
  <line x1="303.888" y1="465.622" x2="299.277" y2="515.81"
        stroke="#3498db" stroke-width="2.5" />
  <line x1="299.277" y1="515.81" x2="296.564" y2="616.729"
        stroke="#3498db" stroke-width="2.5" />
  <line x1="296.564" y1="616.729" x2="308.772" y2="628.666"
        stroke="#3498db" stroke-width="2.5" />
  <line x1="308.772" y1="628.666" x2="301.447" y2="638.704"
        stroke="#3498db" stroke-width="2.5" />
  <line x1="301.447" y1="638.704" x2="287.34" y2="630.023"
        stroke="#3498db" stroke-width="2.5" />
  <line x1="287.34" y1="630.023" x2="278.387" y2="651.997"
        stroke="#3498db" stroke-width="2.5" />
  <line x1="278.387" y1="651.997" x2="314.469" y2="684.552"
        stroke="#3498db" stroke-width="2.5" />
  <line x1="314.469" y1="684.552" x2="326.405" y2="683.195"
        stroke="#3498db" stroke-width="2.5" />
  <line x1="326.405" y1="683.195" x2="346.481" y2="730.399"
        stroke="#3498db" stroke-width="2.5" />
  <line x1="346.481" y1="730.399" x2="325.592" y2="828.063"
        stroke="#3498db" stroke-width="2.5" />
  <line x1="325.592" y1="828.063" x2="309.857" y2="831.59"
        stroke="#3498db" stroke-width="2.5" />
  <line x1="309.857" y1="831.59" x2="299.005" y2="815.584"
        stroke="#3498db" stroke-width="2.5" />
  <line x1="299.005" y1="815.584" x2="278.387" y2="818.297"
        stroke="#3498db" stroke-width="2.5" />
  <line x1="278.387" y1="818.297" x2="236.338" y2="817.212"
        stroke="#3498db" stroke-width="2.5" />
  <line x1="236.338" y1="817.212" x2="234.981" y2="779.503"
        stroke="#3498db" stroke-width="2.5" />
  <line x1="234.981" y1="779.503" x2="241.763" y2="736.368"
        stroke="#3498db" stroke-width="2.5" />
  <line x1="241.763" y1="736.368" x2="248.003" y2="695.674"
        stroke="#3498db" stroke-width="2.5" />
  <line x1="248.003" y1="695.674" x2="218.161" y2="688.078"
        stroke="#3498db" stroke-width="2.5" />
  <line x1="218.161" y1="688.078" x2="197.543" y2="718.191"
        stroke="#3498db" stroke-width="2.5" />
  <line x1="197.543" y1="718.191" x2="132.434" y2="754.544"
        stroke="#3498db" stroke-width="2.5" />
  <line x1="132.434" y1="754.544" x2="128.093" y2="742.607"
        stroke="#3498db" stroke-width="2.5" />
  <line x1="128.093" y1="742.607" x2="101.778" y2="728.772"
        stroke="#3498db" stroke-width="2.5" />
  <line x1="101.778" y1="728.772" x2="83.3308" y2="729.857"
        stroke="#3498db" stroke-width="2.5" />
  <line x1="83.3308" y1="729.857" x2="118.598" y2="695.946"
        stroke="#3498db" stroke-width="2.5" />
  <line x1="118.598" y1="695.946" x2="140.301" y2="658.779"
        stroke="#3498db" stroke-width="2.5" />
  <circle cx="424.612" cy="353.58" r="9.6954" fill="#e74c3c" stroke="#c0392b" stroke-width="1" />
  <circle cx="741.748" cy="735.825" r="9.92529" fill="#e74c3c" stroke="#c0392b" stroke-width="1" />
  <circle cx="808.214" cy="724.16" r="4.89655" fill="#e74c3c" stroke="#c0392b" stroke-width="1" />
  <circle cx="906.42" cy="515.539" r="5.29885" fill="#e74c3c" stroke="#c0392b" stroke-width="1" />
  <circle cx="236.338" cy="817.212" r="10.5862" fill="#e74c3c" stroke="#c0392b" stroke-width="1" />
  <circle cx="227.385" cy="576.579" r="5.5" fill="#e74c3c" stroke="#c0392b" stroke-width="1" />
  <circle cx="531.228" cy="790.625" r="11.9368" fill="#e74c3c" stroke="#c0392b" stroke-width="1" />
  <circle cx="1047.22" cy="330.249" r="11.7644" fill="#e74c3c" stroke="#c0392b" stroke-width="1" />
  <circle cx="999.472" cy="507.129" r="11.0747" fill="#e74c3c" stroke="#c0392b" stroke-width="1" />
  <circle cx="779.186" cy="459.653" r="11.7931" fill="#e74c3c" stroke="#c0392b" stroke-width="1" />
  <circle cx="124.567" cy="828.063" r="8.75287" fill="#7f8c8d" />
  <circle cx="241.763" cy="736.368" r="11.0747" fill="#e74c3c" stroke="#c0392b" stroke-width="1" />
  <circle cx="659.005" cy="579.292" r="8.4023" fill="#e74c3c" stroke="#c0392b" stroke-width="1" />
  <circle cx="1071.91" cy="772.449" r="5.70115" fill="#e74c3c" stroke="#c0392b" stroke-width="1" />
  <circle cx="894.755" cy="438.764" r="4.75287" fill="#e74c3c" stroke="#c0392b" stroke-width="1" />
  <circle cx="715.705" cy="420.045" r="7.88506" fill="#e74c3c" stroke="#c0392b" stroke-width="1" />
  <circle cx="1023.35" cy="840" r="9.12069" fill="#e74c3c" stroke="#c0392b" stroke-width="1" />
  <circle cx="1070.01" cy="662.577" r="2.97701" fill="#7f8c8d" />
  <circle cx="119.141" cy="339.744" r="6.39655" fill="#7f8c8d" />
  <circle cx="693.459" cy="685.365" r="11.7644" fill="#e74c3c" stroke="#c0392b" stroke-width="1" />
  <circle cx="66.2396" cy="378.267" r="5.59195" fill="#7f8c8d" />
  <circle cx="969.902" cy="328.621" r="8.34483" fill="#e74c3c" stroke="#c0392b" stroke-width="1" />
  <circle cx="69.7664" cy="477.287" r="6.5977" fill="#7f8c8d" />
  <circle cx="600.95" cy="398.342" r="11.3908" fill="#e74c3c" stroke="#c0392b" stroke-width="1" />
  <circle cx="346.481" cy="730.399" r="9.92529" fill="#e74c3c" stroke="#c0392b" stroke-width="1" />
  <circle cx="927.581" cy="780.045" r="4.43678" fill="#e74c3c" stroke="#c0392b" stroke-width="1" />
  <circle cx="700.241" cy="740.166" r="7.48276" fill="#e74c3c" stroke="#c0392b" stroke-width="1" />
  <circle cx="1139.46" cy="447.445" r="7.94253" fill="#e74c3c" stroke="#c0392b" stroke-width="1" />
  <circle cx="218.161" cy="688.078" r="11.592" fill="#e74c3c" stroke="#c0392b" stroke-width="1" />
  <circle cx="325.592" cy="828.063" r="12.2241" fill="#e74c3c" stroke="#c0392b" stroke-width="1" />
  <circle cx="83.3308" cy="729.857" r="8.57471" fill="#e74c3c" stroke="#c0392b" stroke-width="1" />
  <circle cx="1059.97" cy="752.916" r="12.3966" fill="#e74c3c" stroke="#c0392b" stroke-width="1" />
  <circle cx="904.793" cy="484.883" r="10.3276" fill="#e74c3c" stroke="#c0392b" stroke-width="1" />
  <circle cx="756.398" cy="507.129" r="5.29885" fill="#e74c3c" stroke="#c0392b" stroke-width="1" />
  <circle cx="68.6812" cy="631.922" r="3.66667" fill="#7f8c8d" />
  <circle cx="254.785" cy="744.235" r="2.43103" fill="#7f8c8d" />
  <circle cx="266.179" cy="324.28" r="3.00575" fill="#7f8c8d" />
  <circle cx="755.041" cy="506.858" r="3.97701" fill="#e74c3c" stroke="#c0392b" stroke-width="1" />
  <circle cx="1049.93" cy="724.974" r="2.20115" fill="#7f8c8d" />
  <circle cx="1043.69" cy="456.669" r="9.63793" fill="#e74c3c" stroke="#c0392b" stroke-width="1" />
  <circle cx="1029.59" cy="539.955" r="8.60345" fill="#e74c3c" stroke="#c0392b" stroke-width="1" />
  <circle cx="206.225" cy="504.145" r="12.5977" fill="#e74c3c" stroke="#c0392b" stroke-width="1" />
  <circle cx="215.177" cy="598.011" r="4.6954" fill="#e74c3c" stroke="#c0392b" stroke-width="1" />
  <circle cx="253.429" cy="633.278" r="3.23563" fill="#7f8c8d" />
  <circle cx="907.234" cy="792.796" r="12.2241" fill="#e74c3c" stroke="#c0392b" stroke-width="1" />
  <circle cx="450.384" cy="677.498" r="2.31609" fill="#7f8c8d" />
  <circle cx="345.938" cy="447.174" r="12.0805" fill="#e74c3c" stroke="#c0392b" stroke-width="1" />
  <circle cx="301.447" cy="638.704" r="4.66667" fill="#e74c3c" stroke="#c0392b" stroke-width="1" />
  <circle cx="118.598" cy="695.946" r="7.82759" fill="#e74c3c" stroke="#c0392b" stroke-width="1" />
  <circle cx="855.418" cy="477.016" r="8.12069" fill="#7f8c8d" />
  <circle cx="1100.39" cy="771.364" r="2.68966" fill="#7f8c8d" />
  <circle cx="458.252" cy="562.2" r="12.6552" fill="#e74c3c" stroke="#c0392b" stroke-width="1" />
  <circle cx="915.916" cy="576.85" r="6.67816" fill="#e74c3c" stroke="#c0392b" stroke-width="1" />
  <circle cx="625.908" cy="759.699" r="8.68966" fill="#e74c3c" stroke="#c0392b" stroke-width="1" />
  <circle cx="101.778" cy="728.772" r="11.9943" fill="#e74c3c" stroke="#c0392b" stroke-width="1" />
  <circle cx="909.947" cy="590.143" r="4.40805" fill="#e74c3c" stroke="#c0392b" stroke-width="1" />
  <circle cx="1086.83" cy="774.619" r="12.3103" fill="#e74c3c" stroke="#c0392b" stroke-width="1" />
  <circle cx="907.234" cy="638.433" r="2.20115" fill="#7f8c8d" />
  <circle cx="1102.83" cy="350.324" r="4.06322" fill="#e74c3c" stroke="#c0392b" stroke-width="1" />
  <circle cx="374.966" cy="587.702" r="10.0115" fill="#e74c3c" stroke="#c0392b" stroke-width="1" />
  <circle cx="405.622" cy="506.315" r="12.4253" fill="#e74c3c" stroke="#c0392b" stroke-width="1" />
  <circle cx="780.543" cy="433.067" r="10.5575" fill="#e74c3c" stroke="#c0392b" stroke-width="1" />
  <circle cx="783.527" cy="456.398" r="9.72414" fill="#e74c3c" stroke="#c0392b" stroke-width="1" />
  <circle cx="591.997" cy="673.7" r="6.65517" fill="#7f8c8d" />
  <circle cx="708.38" cy="358.463" r="11.3908" fill="#e74c3c" stroke="#c0392b" stroke-width="1" />
  <circle cx="308.772" cy="628.666" r="7.85632" fill="#e74c3c" stroke="#c0392b" stroke-width="1" />
  <circle cx="502.472" cy="535.614" r="6.65517" fill="#7f8c8d" />
  <circle cx="207.31" cy="312.886" r="6.79885" fill="#7f8c8d" />
  <circle cx="307.144" cy="394.002" r="11.3333" fill="#e74c3c" stroke="#c0392b" stroke-width="1" />
  <circle cx="154.408" cy="341.643" r="11.1954" fill="#7f8c8d" />
  <circle cx="501.658" cy="839.729" r="8.89655" fill="#7f8c8d" />
  <circle cx="1132.4" cy="385.592" r="8.86207" fill="#e74c3c" stroke="#c0392b" stroke-width="1" />
  <circle cx="420.814" cy="611.846" r="12.6839" fill="#e74c3c" stroke="#c0392b" stroke-width="1" />
  <circle cx="814.182" cy="322.11" r="4.55747" fill="#7f8c8d" />
  <circle cx="754.499" cy="688.892" r="7.74138" fill="#e74c3c" stroke="#c0392b" stroke-width="1" />
  <circle cx="766.164" cy="805.004" r="3.72414" fill="#7f8c8d" />
  <circle cx="556.729" cy="377.182" r="7.13793" fill="#e74c3c" stroke="#c0392b" stroke-width="1" />
  <circle cx="278.387" cy="651.997" r="10.931" fill="#e74c3c" stroke="#c0392b" stroke-width="1" />
  <circle cx="979.126" cy="730.942" r="7.1954" fill="#e74c3c" stroke="#c0392b" stroke-width="1" />
  <circle cx="559.442" cy="655.795" r="2.8046" fill="#7f8c8d" />
  <circle cx="551.575" cy="605.335" r="3.83908" fill="#7f8c8d" />
  <circle cx="1115.31" cy="610.49" r="7.82759" fill="#e74c3c" stroke="#c0392b" stroke-width="1" />
  <circle cx="889.601" cy="729.043" r="12.8563" fill="#e74c3c" stroke="#c0392b" stroke-width="1" />
  <circle cx="635.674" cy="351.68" r="5.16092" fill="#7f8c8d" />
  <circle cx="234.981" cy="779.503" r="4.46552" fill="#e74c3c" stroke="#c0392b" stroke-width="1" />
  <circle cx="1082.22" cy="754.002" r="2.17241" fill="#7f8c8d" />
  <circle cx="707.566" cy="782.758" r="2.51724" fill="#7f8c8d" />
  <circle cx="785.426" cy="699.744" r="9.58046" fill="#e74c3c" stroke="#c0392b" stroke-width="1" />
  <circle cx="1040.71" cy="839.729" r="9.03448" fill="#e74c3c" stroke="#c0392b" stroke-width="1" />
  <circle cx="578.433" cy="340.286" r="5.18391" fill="#e74c3c" stroke="#c0392b" stroke-width="1" />
  <circle cx="1139.73" cy="488.139" r="11.4483" fill="#e74c3c" stroke="#c0392b" stroke-width="1" />
  <circle cx="987.536" cy="638.433" r="10.4425" fill="#e74c3c" stroke="#c0392b" stroke-width="1" />
  <circle cx="918.086" cy="676.413" r="4.61494" fill="#7f8c8d" />
  <circle cx="311.756" cy="308.546" r="7.1954" fill="#e74c3c" stroke="#c0392b" stroke-width="1" />
  <circle cx="663.888" cy="633.549" r="9.98276" fill="#e74c3c" stroke="#c0392b" stroke-width="1" />
  <circle cx="1058.34" cy="393.188" r="5.59195" fill="#7f8c8d" />
  <circle cx="237.151" cy="553.791" r="9.95402" fill="#e74c3c" stroke="#c0392b" stroke-width="1" />
  <circle cx="725.742" cy="725.245" r="5.81609" fill="#e74c3c" stroke="#c0392b" stroke-width="1" />
  <circle cx="1129.69" cy="656.066" r="3.32184" fill="#7f8c8d" />
  <circle cx="666.33" cy="707.882" r="10.5" fill="#e74c3c" stroke="#c0392b" stroke-width="1" />
  <circle cx="692.645" cy="743.15" r="7.56897" fill="#e74c3c" stroke="#c0392b" stroke-width="1" />
  <circle cx="736.323" cy="758.885" r="12.3391" fill="#e74c3c" stroke="#c0392b" stroke-width="1" />
  <circle cx="834.529" cy="458.568" r="4.61494" fill="#7f8c8d" />
  <circle cx="60" cy="552.163" r="11.7701" fill="#7f8c8d" />
  <circle cx="132.434" cy="754.544" r="5.41379" fill="#e74c3c" stroke="#c0392b" stroke-width="1" />
  <circle cx="287.34" cy="630.023" r="7.48276" fill="#e74c3c" stroke="#c0392b" stroke-width="1" />
  <circle cx="917.272" cy="529.646" r="4.17816" fill="#e74c3c" stroke="#c0392b" stroke-width="1" />
  <circle cx="1137.56" cy="453.414" r="12.8276" fill="#e74c3c" stroke="#c0392b" stroke-width="1" />
  <circle cx="162.547" cy="303.934" r="9.47126" fill="#7f8c8d" />
  <circle cx="439.533" cy="555.961" r="5.67241" fill="#e74c3c" stroke="#c0392b" stroke-width="1" />
  <circle cx="248.817" cy="430.354" r="7.36782" fill="#e74c3c" stroke="#c0392b" stroke-width="1" />
  <circle cx="751.243" cy="576.307" r="9.55172" fill="#e74c3c" stroke="#c0392b" stroke-width="1" />
  <circle cx="278.387" cy="818.297" r="8.02874" fill="#e74c3c" stroke="#c0392b" stroke-width="1" />
  <circle cx="1093.07" cy="788.998" r="2.97701" fill="#7f8c8d" />
  <circle cx="677.182" cy="368.772" r="11.8218" fill="#e74c3c" stroke="#c0392b" stroke-width="1" />
  <circle cx="299.277" cy="515.81" r="11.0172" fill="#e74c3c" stroke="#c0392b" stroke-width="1" />
  <circle cx="296.564" cy="616.729" r="10.4425" fill="#e74c3c" stroke="#c0392b" stroke-width="1" />
  <circle cx="382.291" cy="312.344" r="6.90805" fill="#e74c3c" stroke="#c0392b" stroke-width="1" />
  <circle cx="390.43" cy="559.759" r="12.6839" fill="#e74c3c" stroke="#c0392b" stroke-width="1" />
  <circle cx="1030.13" cy="536.157" r="9.2931" fill="#e74c3c" stroke="#c0392b" stroke-width="1" />
  <circle cx="875.222" cy="770.279" r="9.2069" fill="#e74c3c" stroke="#c0392b" stroke-width="1" />
  <circle cx="658.734" cy="723.888" r="12.1667" fill="#e74c3c" stroke="#c0392b" stroke-width="1" />
  <circle cx="587.114" cy="640.874" r="2.17241" fill="#7f8c8d" />
  <circle cx="382.291" cy="753.459" r="2.4023" fill="#7f8c8d" />
  <circle cx="691.017" cy="610.219" r="8.54598" fill="#e74c3c" stroke="#c0392b" stroke-width="1" />
  <circle cx="763.723" cy="689.977" r="3.71839" fill="#e74c3c" stroke="#c0392b" stroke-width="1" />
  <circle cx="299.005" cy="815.584" r="4.46552" fill="#e74c3c" stroke="#c0392b" stroke-width="1" />
  <circle cx="412.675" cy="810.158" r="6.54023" fill="#7f8c8d" />
  <circle cx="805.501" cy="551.349" r="4.0977" fill="#7f8c8d" />
  <circle cx="877.121" cy="689.706" r="3.81034" fill="#7f8c8d" />
  <circle cx="655.75" cy="594.755" r="9.14943" fill="#e74c3c" stroke="#c0392b" stroke-width="1" />
  <circle cx="314.469" cy="684.552" r="5.18391" fill="#e74c3c" stroke="#c0392b" stroke-width="1" />
  <circle cx="859.759" cy="337.302" r="6.87931" fill="#e74c3c" stroke="#c0392b" stroke-width="1" />
  <circle cx="511.424" cy="673.7" r="6.13793" fill="#7f8c8d" />
  <circle cx="72.208" cy="309.902" r="3.58046" fill="#7f8c8d" />
  <circle cx="504.913" cy="796.323" r="2" fill="#7f8c8d" />
  <circle cx="617.227" cy="724.16" r="9.12069" fill="#e74c3c" stroke="#c0392b" stroke-width="1" />
  <circle cx="573.007" cy="463.723" r="6.71264" fill="#7f8c8d" />
  <circle cx="932.193" cy="461.281" r="11.1322" fill="#e74c3c" stroke="#c0392b" stroke-width="1" />
  <circle cx="266.451" cy="455.041" r="7.08046" fill="#e74c3c" stroke="#c0392b" stroke-width="1" />
  <circle cx="291.409" cy="316.413" r="13" fill="#e74c3c" stroke="#c0392b" stroke-width="1" />
  <circle cx="469.646" cy="508.757" r="10.2184" fill="#7f8c8d" />
  <circle cx="192.389" cy="455.313" r="3.37356" fill="#e74c3c" stroke="#c0392b" stroke-width="1" />
  <circle cx="441.432" cy="308.817" r="4.18391" fill="#7f8c8d" />
  <circle cx="843.21" cy="404.31" r="8.51724" fill="#e74c3c" stroke="#c0392b" stroke-width="1" />
  <circle cx="979.397" cy="697.031" r="7.02299" fill="#e74c3c" stroke="#c0392b" stroke-width="1" />
  <circle cx="73.2931" cy="529.375" r="8.92529" fill="#7f8c8d" />
  <circle cx="128.093" cy="742.607" r="8.97701" fill="#e74c3c" stroke="#c0392b" stroke-width="1" />
  <circle cx="734.695" cy="514.182" r="6.07471" fill="#e74c3c" stroke="#c0392b" stroke-width="1" />
  <circle cx="326.405" cy="683.195" r="6.85057" fill="#e74c3c" stroke="#c0392b" stroke-width="1" />
  <circle cx="746.089" cy="770.279" r="12.3678" fill="#e74c3c" stroke="#c0392b" stroke-width="1" />
  <circle cx="470.731" cy="643.858" r="4.70115" fill="#7f8c8d" />
  <circle cx="748.531" cy="690.52" r="5.84483" fill="#e74c3c" stroke="#c0392b" stroke-width="1" />
  <circle cx="466.119" cy="347.611" r="4.95402" fill="#e74c3c" stroke="#c0392b" stroke-width="1" />
  <circle cx="566.496" cy="777.332" r="3.86782" fill="#7f8c8d" />
  <circle cx="853.248" cy="419.503" r="11.0747" fill="#e74c3c" stroke="#c0392b" stroke-width="1" />
  <circle cx="309.857" cy="831.59" r="6.44828" fill="#e74c3c" stroke="#c0392b" stroke-width="1" />
  <circle cx="1070.28" cy="701.372" r="12.1092" fill="#e74c3c" stroke="#c0392b" stroke-width="1" />
  <circle cx="608.274" cy="778.417" r="12.0517" fill="#e74c3c" stroke="#c0392b" stroke-width="1" />
  <circle cx="146.812" cy="482.17" r="12.3391" fill="#e74c3c" stroke="#c0392b" stroke-width="1" />
  <circle cx="140.301" cy="658.779" r="12.2126" fill="#2ecc71" stroke="#27ae60" stroke-width="2" />
  <circle cx="440.618" cy="712.766" r="11.4195" fill="#e74c3c" stroke="#c0392b" stroke-width="1" />
  <circle cx="441.161" cy="690.791" r="4.78161" fill="#e74c3c" stroke="#c0392b" stroke-width="1" />
  <circle cx="202.155" cy="354.936" r="10.8506" fill="#7f8c8d" />
  <circle cx="1099.31" cy="327.536" r="12.3391" fill="#e74c3c" stroke="#c0392b" stroke-width="1" />
  <circle cx="1027.14" cy="491.665" r="10.7299" fill="#e74c3c" stroke="#c0392b" stroke-width="1" />
  <circle cx="248.003" cy="695.674" r="10.2414" fill="#e74c3c" stroke="#c0392b" stroke-width="1" />
  <circle cx="784.612" cy="573.866" r="11.3908" fill="#e74c3c" stroke="#c0392b" stroke-width="1" />
  <circle cx="1008.43" cy="708.968" r="11.3908" fill="#e74c3c" stroke="#c0392b" stroke-width="1" />
  <circle cx="1050.2" cy="605.607" r="12.0805" fill="#e74c3c" stroke="#c0392b" stroke-width="1" />
  <circle cx="425.426" cy="321.839" r="6.62069" fill="#e74c3c" stroke="#c0392b" stroke-width="1" />
  <circle cx="1067.84" cy="825.622" r="6.59195" fill="#e74c3c" stroke="#c0392b" stroke-width="1" />
  <circle cx="833.173" cy="617.001" r="4.6092" fill="#e74c3c" stroke="#c0392b" stroke-width="1" />
  <circle cx="543.979" cy="749.39" r="7.85632" fill="#e74c3c" stroke="#c0392b" stroke-width="1" />
  <circle cx="1087.1" cy="572.238" r="10.0115" fill="#e74c3c" stroke="#c0392b" stroke-width="1" />
  <circle cx="1095.51" cy="825.35" r="2.05747" fill="#7f8c8d" />
  <circle cx="538.282" cy="564.099" r="7.57471" fill="#7f8c8d" />
  <circle cx="128.365" cy="784.386" r="4.44253" fill="#7f8c8d" />
  <circle cx="907.234" cy="523.677" r="7.91379" fill="#e74c3c" stroke="#c0392b" stroke-width="1" />
  <circle cx="970.987" cy="651.726" r="10.3276" fill="#e74c3c" stroke="#c0392b" stroke-width="1" />
  <circle cx="575.991" cy="755.629" r="10.0977" fill="#e74c3c" stroke="#c0392b" stroke-width="1" />
  <circle cx="142.2" cy="582.005" r="3.78161" fill="#7f8c8d" />
  <circle cx="623.466" cy="717.92" r="3.91954" fill="#e74c3c" stroke="#c0392b" stroke-width="1" />
  <circle cx="555.644" cy="313.7" r="11.0172" fill="#e74c3c" stroke="#c0392b" stroke-width="1" />
  <circle cx="197.543" cy="718.191" r="12.6839" fill="#e74c3c" stroke="#c0392b" stroke-width="1" />
  <circle cx="998.116" cy="547.822" r="8.54598" fill="#e74c3c" stroke="#c0392b" stroke-width="1" />
  <circle cx="632.419" cy="395.629" r="4.78161" fill="#e74c3c" stroke="#c0392b" stroke-width="1" />
  <circle cx="1115.86" cy="593.67" r="9.40805" fill="#e74c3c" stroke="#c0392b" stroke-width="1" />
  <circle cx="1100.93" cy="744.506" r="7.97126" fill="#e74c3c" stroke="#c0392b" stroke-width="1" />
  <circle cx="680.437" cy="685.365" r="5.44253" fill="#e74c3c" stroke="#c0392b" stroke-width="1" />
  <circle cx="158.206" cy="819.111" r="9.18391" fill="#7f8c8d" />
  <circle cx="247.189" cy="450.701" r="4.23563" fill="#e74c3c" stroke="#c0392b" stroke-width="1" />
  <circle cx="151.967" cy="623.24" r="9.23563" fill="#e74c3c" stroke="#c0392b" stroke-width="1" />
  <circle cx="192.931" cy="490.852" r="8.45977" fill="#e74c3c" stroke="#c0392b" stroke-width="1" />
  <circle cx="467.747" cy="765.667" r="8.71839" fill="#e74c3c" stroke="#c0392b" stroke-width="1" />
  <circle cx="108.289" cy="528.561" r="3.09195" fill="#7f8c8d" />
  <circle cx="1057.53" cy="634.906" r="12.9425" fill="#e74c3c" stroke="#c0392b" stroke-width="1" />
  <circle cx="320.98" cy="573.866" r="2.28736" fill="#7f8c8d" />
  <circle cx="303.888" cy="465.622" r="7.91379" fill="#e74c3c" stroke="#c0392b" stroke-width="1" />
  <circle cx="128.093" cy="388.033" r="4.21264" fill="#7f8c8d" />
</svg>
