<svg width="1200" height="900" xmlns="http://www.w3.org/2000/svg">
  <rect width="100%" height="100%" fill="#f5f5f5"/>
  <text x="60" y="30" font-family="Arial, sans-serif" font-size="18" font-weight="bold" fill="#333">
    Funkcja celu: 19066 | Wierzcholki w cyklu: 157 / 200
  </text>
  <line x1="551.646" y1="391.036" x2="554.617" y2="358.349"
        stroke="#3498db" stroke-width="2.5" />
  <line x1="554.617" y1="358.349" x2="522.201" y2="350.515"
        stroke="#3498db" stroke-width="2.5" />
  <line x1="522.201" y1="350.515" x2="506.533" y2="328.364"
        stroke="#3498db" stroke-width="2.5" />
  <line x1="506.533" y1="328.364" x2="497.619" y2="338.629"
        stroke="#3498db" stroke-width="2.5" />
  <line x1="497.619" y1="338.629" x2="452.776" y2="354.297"
        stroke="#3498db" stroke-width="2.5" />
  <line x1="452.776" y1="354.297" x2="413.337" y2="337.819"
        stroke="#3498db" stroke-width="2.5" />
  <line x1="413.337" y1="337.819" x2="393.347" y2="346.733"
        stroke="#3498db" stroke-width="2.5" />
  <line x1="393.347" y1="346.733" x2="352.556" y2="352.406"
        stroke="#3498db" stroke-width="2.5" />
  <line x1="352.556" y1="352.406" x2="261.251" y2="344.572"
        stroke="#3498db" stroke-width="2.5" />
  <line x1="261.251" y1="344.572" x2="243.962" y2="368.884"
        stroke="#3498db" stroke-width="2.5" />
  <line x1="243.962" y1="368.884" x2="219.38" y2="342.411"
        stroke="#3498db" stroke-width="2.5" />
  <line x1="219.38" y1="342.411" x2="198.309" y2="363.482"
        stroke="#3498db" stroke-width="2.5" />
  <line x1="198.309" y1="363.482" x2="180.75" y2="367.264"
        stroke="#3498db" stroke-width="2.5" />
  <line x1="180.75" y1="367.264" x2="116.188" y2="344.302"
        stroke="#3498db" stroke-width="2.5" />
  <line x1="116.188" y1="344.302" x2="90.2551" y2="379.69"
        stroke="#3498db" stroke-width="2.5" />
  <line x1="90.2551" y1="379.69" x2="68.1041" y2="455.868"
        stroke="#3498db" stroke-width="2.5" />
  <line x1="68.1041" y1="455.868" x2="94.3072" y2="492.336"
        stroke="#3498db" stroke-width="2.5" />
  <line x1="94.3072" y1="492.336" x2="78.3692" y2="575.808"
        stroke="#3498db" stroke-width="2.5" />
  <line x1="78.3692" y1="575.808" x2="60" y2="604.172"
        stroke="#3498db" stroke-width="2.5" />
  <line x1="60" y1="604.172" x2="91.6058" y2="601.201"
        stroke="#3498db" stroke-width="2.5" />
  <line x1="91.6058" y1="601.201" x2="128.074" y2="618.219"
        stroke="#3498db" stroke-width="2.5" />
  <line x1="128.074" y1="618.219" x2="134.557" y2="616.868"
        stroke="#3498db" stroke-width="2.5" />
  <line x1="134.557" y1="616.868" x2="139.69" y2="665.223"
        stroke="#3498db" stroke-width="2.5" />
  <line x1="139.69" y1="665.223" x2="146.173" y2="646.043"
        stroke="#3498db" stroke-width="2.5" />
  <line x1="146.173" y1="646.043" x2="209.385" y2="539.88"
        stroke="#3498db" stroke-width="2.5" />
  <line x1="209.385" y1="539.88" x2="276.648" y2="473.157"
        stroke="#3498db" stroke-width="2.5" />
  <line x1="276.648" y1="473.157" x2="266.653" y2="443.442"
        stroke="#3498db" stroke-width="2.5" />
  <line x1="266.653" y1="443.442" x2="280.16" y2="433.717"
        stroke="#3498db" stroke-width="2.5" />
  <line x1="280.16" y1="433.717" x2="317.169" y2="421.291"
        stroke="#3498db" stroke-width="2.5" />
  <line x1="317.169" y1="421.291" x2="324.462" y2="432.906"
        stroke="#3498db" stroke-width="2.5" />
  <line x1="324.462" y1="432.906" x2="323.382" y2="441.281"
        stroke="#3498db" stroke-width="2.5" />
  <line x1="323.382" y1="441.281" x2="428.194" y2="448.034"
        stroke="#3498db" stroke-width="2.5" />
  <line x1="428.194" y1="448.034" x2="453.587" y2="462.351"
        stroke="#3498db" stroke-width="2.5" />
  <line x1="453.587" y1="462.351" x2="410.635" y2="503.682"
        stroke="#3498db" stroke-width="2.5" />
  <line x1="410.635" y1="503.682" x2="384.702" y2="510.165"
        stroke="#3498db" stroke-width="2.5" />
  <line x1="384.702" y1="510.165" x2="360.93" y2="492.066"
        stroke="#3498db" stroke-width="2.5" />
  <line x1="360.93" y1="492.066" x2="329.595" y2="477.749"
        stroke="#3498db" stroke-width="2.5" />
  <line x1="329.595" y1="477.749" x2="326.893" y2="546.633"
        stroke="#3498db" stroke-width="2.5" />
  <line x1="326.893" y1="546.633" x2="287.994" y2="562.301"
        stroke="#3498db" stroke-width="2.5" />
  <line x1="287.994" y1="562.301" x2="287.724" y2="602.551"
        stroke="#3498db" stroke-width="2.5" />
  <line x1="287.724" y1="602.551" x2="278.269" y2="623.352"
        stroke="#3498db" stroke-width="2.5" />
  <line x1="278.269" y1="623.352" x2="232.886" y2="659.82"
        stroke="#3498db" stroke-width="2.5" />
  <line x1="232.886" y1="659.82" x2="178.589" y2="678.459"
        stroke="#3498db" stroke-width="2.5" />
  <line x1="178.589" y1="678.459" x2="171.296" y2="692.776"
        stroke="#3498db" stroke-width="2.5" />
  <line x1="171.296" y1="692.776" x2="198.039" y2="688.724"
        stroke="#3498db" stroke-width="2.5" />
  <line x1="198.039" y1="688.724" x2="215.868" y2="714.117"
        stroke="#3498db" stroke-width="2.5" />
  <line x1="215.868" y1="714.117" x2="230.185" y2="704.932"
        stroke="#3498db" stroke-width="2.5" />
  <line x1="230.185" y1="704.932" x2="231.536" y2="696.828"
        stroke="#3498db" stroke-width="2.5" />
  <line x1="231.536" y1="696.828" x2="236.398" y2="710.335"
        stroke="#3498db" stroke-width="2.5" />
  <line x1="236.398" y1="710.335" x2="248.554" y2="710.065"
        stroke="#3498db" stroke-width="2.5" />
  <line x1="248.554" y1="710.065" x2="270.975" y2="755.988"
        stroke="#3498db" stroke-width="2.5" />
  <line x1="270.975" y1="755.988" x2="234.777" y2="773.007"
        stroke="#3498db" stroke-width="2.5" />
  <line x1="234.777" y1="773.007" x2="239.64" y2="814.337"
        stroke="#3498db" stroke-width="2.5" />
  <line x1="239.64" y1="814.337" x2="241.261" y2="827.574"
        stroke="#3498db" stroke-width="2.5" />
  <line x1="241.261" y1="827.574" x2="301.231" y2="838.919"
        stroke="#3498db" stroke-width="2.5" />
  <line x1="301.231" y1="838.919" x2="303.122" y2="829.735"
        stroke="#3498db" stroke-width="2.5" />
  <line x1="303.122" y1="829.735" x2="345.803" y2="788.944"
        stroke="#3498db" stroke-width="2.5" />
  <line x1="345.803" y1="788.944" x2="362.011" y2="806.773"
        stroke="#3498db" stroke-width="2.5" />
  <line x1="362.011" y1="806.773" x2="364.982" y2="822.981"
        stroke="#3498db" stroke-width="2.5" />
  <line x1="364.982" y1="822.981" x2="370.655" y2="816.498"
        stroke="#3498db" stroke-width="2.5" />
  <line x1="370.655" y1="816.498" x2="381.191" y2="774.357"
        stroke="#3498db" stroke-width="2.5" />
  <line x1="381.191" y1="774.357" x2="412.256" y2="702.231"
        stroke="#3498db" stroke-width="2.5" />
  <line x1="412.256" y1="702.231" x2="451.156" y2="734.107"
        stroke="#3498db" stroke-width="2.5" />
  <line x1="451.156" y1="734.107" x2="443.052" y2="799.21"
        stroke="#3498db" stroke-width="2.5" />
  <line x1="443.052" y1="799.21" x2="528.414" y2="807.314"
        stroke="#3498db" stroke-width="2.5" />
  <line x1="528.414" y1="807.314" x2="537.599" y2="805.963"
        stroke="#3498db" stroke-width="2.5" />
  <line x1="537.599" y1="805.963" x2="560.83" y2="807.584"
        stroke="#3498db" stroke-width="2.5" />
  <line x1="560.83" y1="807.584" x2="626.203" y2="840"
        stroke="#3498db" stroke-width="2.5" />
  <line x1="626.203" y1="840" x2="694.817" y2="792.726"
        stroke="#3498db" stroke-width="2.5" />
  <line x1="694.817" y1="792.726" x2="675.908" y2="761.661"
        stroke="#3498db" stroke-width="2.5" />
  <line x1="675.908" y1="761.661" x2="628.094" y2="735.458"
        stroke="#3498db" stroke-width="2.5" />
  <line x1="628.094" y1="735.458" x2="563.532" y2="717.359"
        stroke="#3498db" stroke-width="2.5" />
  <line x1="563.532" y1="717.359" x2="601.081" y2="703.852"
        stroke="#3498db" stroke-width="2.5" />
  <line x1="601.081" y1="703.852" x2="610.535" y2="655.228"
        stroke="#3498db" stroke-width="2.5" />
  <line x1="610.535" y1="655.228" x2="585.143" y2="657.929"
        stroke="#3498db" stroke-width="2.5" />
  <line x1="585.143" y1="657.929" x2="575.688" y2="624.432"
        stroke="#3498db" stroke-width="2.5" />
  <line x1="575.688" y1="624.432" x2="557.049" y2="629.025"
        stroke="#3498db" stroke-width="2.5" />
  <line x1="557.049" y1="629.025" x2="515.988" y2="629.025"
        stroke="#3498db" stroke-width="2.5" />
  <line x1="515.988" y1="629.025" x2="491.946" y2="670.355"
        stroke="#3498db" stroke-width="2.5" />
  <line x1="491.946" y1="670.355" x2="413.067" y2="625.243"
        stroke="#3498db" stroke-width="2.5" />
  <line x1="413.067" y1="625.243" x2="490.325" y2="555.818"
        stroke="#3498db" stroke-width="2.5" />
  <line x1="490.325" y1="555.818" x2="520.31" y2="566.353"
        stroke="#3498db" stroke-width="2.5" />
  <line x1="520.31" y1="566.353" x2="539.49" y2="521.511"
        stroke="#3498db" stroke-width="2.5" />
  <line x1="539.49" y1="521.511" x2="573.797" y2="539.61"
        stroke="#3498db" stroke-width="2.5" />
  <line x1="573.797" y1="539.61" x2="570.825" y2="566.893"
        stroke="#3498db" stroke-width="2.5" />
  <line x1="570.825" y1="566.893" x2="593.787" y2="573.647"
        stroke="#3498db" stroke-width="2.5" />
  <line x1="593.787" y1="573.647" x2="635.388" y2="548.794"
        stroke="#3498db" stroke-width="2.5" />
  <line x1="635.388" y1="548.794" x2="641.331" y2="529.345"
        stroke="#3498db" stroke-width="2.5" />
  <line x1="641.331" y1="529.345" x2="652.676" y2="550.415"
        stroke="#3498db" stroke-width="2.5" />
  <line x1="652.676" y1="550.415" x2="666.993" y2="543.122"
        stroke="#3498db" stroke-width="2.5" />
  <line x1="666.993" y1="543.122" x2="675.098" y2="531.506"
        stroke="#3498db" stroke-width="2.5" />
  <line x1="675.098" y1="531.506" x2="684.552" y2="547.444"
        stroke="#3498db" stroke-width="2.5" />
  <line x1="684.552" y1="547.444" x2="691.306" y2="603.902"
        stroke="#3498db" stroke-width="2.5" />
  <line x1="691.306" y1="603.902" x2="649.435" y2="640.1"
        stroke="#3498db" stroke-width="2.5" />
  <line x1="649.435" y1="640.1" x2="696.708" y2="648.474"
        stroke="#3498db" stroke-width="2.5" />
  <line x1="696.708" y1="648.474" x2="791.796" y2="611.736"
        stroke="#3498db" stroke-width="2.5" />
  <line x1="791.796" y1="611.736" x2="789.365" y2="598.499"
        stroke="#3498db" stroke-width="2.5" />
  <line x1="789.365" y1="598.499" x2="851.496" y2="574.457"
        stroke="#3498db" stroke-width="2.5" />
  <line x1="851.496" y1="574.457" x2="844.202" y2="600.93"
        stroke="#3498db" stroke-width="2.5" />
  <line x1="844.202" y1="600.93" x2="798.279" y2="656.848"
        stroke="#3498db" stroke-width="2.5" />
  <line x1="798.279" y1="656.848" x2="793.417" y2="744.912"
        stroke="#3498db" stroke-width="2.5" />
  <line x1="793.417" y1="744.912" x2="829.615" y2="748.964"
        stroke="#3498db" stroke-width="2.5" />
  <line x1="829.615" y1="748.964" x2="890.935" y2="757.609"
        stroke="#3498db" stroke-width="2.5" />
  <line x1="890.935" y1="757.609" x2="922.811" y2="779.76"
        stroke="#3498db" stroke-width="2.5" />
  <line x1="922.811" y1="779.76" x2="907.414" y2="808.124"
        stroke="#3498db" stroke-width="2.5" />
  <line x1="907.414" y1="808.124" x2="934.157" y2="795.428"
        stroke="#3498db" stroke-width="2.5" />
  <line x1="934.157" y1="795.428" x2="986.833" y2="834.057"
        stroke="#3498db" stroke-width="2.5" />
  <line x1="986.833" y1="834.057" x2="986.293" y2="772.466"
        stroke="#3498db" stroke-width="2.5" />
  <line x1="986.293" y1="772.466" x2="934.967" y2="755.718"
        stroke="#3498db" stroke-width="2.5" />
  <line x1="934.967" y1="755.718" x2="944.962" y2="741.671"
        stroke="#3498db" stroke-width="2.5" />
  <line x1="944.962" y1="741.671" x2="943.882" y2="689.805"
        stroke="#3498db" stroke-width="2.5" />
  <line x1="943.882" y1="689.805" x2="945.773" y2="683.322"
        stroke="#3498db" stroke-width="2.5" />
  <line x1="945.773" y1="683.322" x2="960.09" y2="685.483"
        stroke="#3498db" stroke-width="2.5" />
  <line x1="960.09" y1="685.483" x2="987.914" y2="682.781"
        stroke="#3498db" stroke-width="2.5" />
  <line x1="987.914" y1="682.781" x2="1011.69" y2="648.474"
        stroke="#3498db" stroke-width="2.5" />
  <line x1="1011.69" y1="648.474" x2="1081.65" y2="582.291"
        stroke="#3498db" stroke-width="2.5" />
  <line x1="1081.65" y1="582.291" x2="1072.2" y2="553.657"
        stroke="#3498db" stroke-width="2.5" />
  <line x1="1072.2" y1="553.657" x2="1098.94" y2="572.836"
        stroke="#3498db" stroke-width="2.5" />
  <line x1="1098.94" y1="572.836" x2="1139.73" y2="546.363"
        stroke="#3498db" stroke-width="2.5" />
  <line x1="1139.73" y1="546.363" x2="1120.55" y2="480.18"
        stroke="#3498db" stroke-width="2.5" />
  <line x1="1120.55" y1="480.18" x2="1124.87" y2="467.484"
        stroke="#3498db" stroke-width="2.5" />
  <line x1="1124.87" y1="467.484" x2="1128.65" y2="466.403"
        stroke="#3498db" stroke-width="2.5" />
  <line x1="1128.65" y1="466.403" x2="1114.88" y2="435.608"
        stroke="#3498db" stroke-width="2.5" />
  <line x1="1114.88" y1="435.608" x2="1092.73" y2="415.888"
        stroke="#3498db" stroke-width="2.5" />
  <line x1="1092.73" y1="415.888" x2="1134.33" y2="365.643"
        stroke="#3498db" stroke-width="2.5" />
  <line x1="1134.33" y1="365.643" x2="1129.19" y2="348.894"
        stroke="#3498db" stroke-width="2.5" />
  <line x1="1129.19" y1="348.894" x2="1067.33" y2="354.567"
        stroke="#3498db" stroke-width="2.5" />
  <line x1="1067.33" y1="354.567" x2="1038.43" y2="349.705"
        stroke="#3498db" stroke-width="2.5" />
  <line x1="1038.43" y1="349.705" x2="1000.88" y2="326.743"
        stroke="#3498db" stroke-width="2.5" />
  <line x1="1000.88" y1="326.743" x2="998.989" y2="323.232"
        stroke="#3498db" stroke-width="2.5" />
  <line x1="998.989" y1="323.232" x2="974.677" y2="316.208"
        stroke="#3498db" stroke-width="2.5" />
  <line x1="974.677" y1="316.208" x2="960.9" y2="320.8"
        stroke="#3498db" stroke-width="2.5" />
  <line x1="960.9" y1="320.8" x2="947.394" y2="385.363"
        stroke="#3498db" stroke-width="2.5" />
  <line x1="947.394" y1="385.363" x2="990.615" y2="381.041"
        stroke="#3498db" stroke-width="2.5" />
  <line x1="990.615" y1="381.041" x2="1005.74" y2="425.073"
        stroke="#3498db" stroke-width="2.5" />
  <line x1="1005.74" y1="425.073" x2="1037.08" y2="512.326"
        stroke="#3498db" stroke-width="2.5" />
  <line x1="1037.08" y1="512.326" x2="1011.69" y2="541.231"
        stroke="#3498db" stroke-width="2.5" />
  <line x1="1011.69" y1="541.231" x2="969.815" y2="508.004"
        stroke="#3498db" stroke-width="2.5" />
  <line x1="969.815" y1="508.004" x2="973.057" y2="581.211"
        stroke="#3498db" stroke-width="2.5" />
  <line x1="973.057" y1="581.211" x2="926.053" y2="566.083"
        stroke="#3498db" stroke-width="2.5" />
  <line x1="926.053" y1="566.083" x2="891.206" y2="563.652"
        stroke="#3498db" stroke-width="2.5" />
  <line x1="891.206" y1="563.652" x2="860.14" y2="525.563"
        stroke="#3498db" stroke-width="2.5" />
  <line x1="860.14" y1="525.563" x2="857.439" y2="503.142"
        stroke="#3498db" stroke-width="2.5" />
  <line x1="857.439" y1="503.142" x2="858.789" y2="483.422"
        stroke="#3498db" stroke-width="2.5" />
  <line x1="858.789" y1="483.422" x2="900.93" y2="436.958"
        stroke="#3498db" stroke-width="2.5" />
  <line x1="900.93" y1="436.958" x2="848.254" y2="352.946"
        stroke="#3498db" stroke-width="2.5" />
  <line x1="848.254" y1="352.946" x2="761.811" y2="355.648"
        stroke="#3498db" stroke-width="2.5" />
  <line x1="761.811" y1="355.648" x2="721.831" y2="344.302"
        stroke="#3498db" stroke-width="2.5" />
  <line x1="721.831" y1="344.302" x2="720.21" y2="396.438"
        stroke="#3498db" stroke-width="2.5" />
  <line x1="720.21" y1="396.438" x2="703.192" y2="396.438"
        stroke="#3498db" stroke-width="2.5" />
  <line x1="703.192" y1="396.438" x2="631.066" y2="335.658"
        stroke="#3498db" stroke-width="2.5" />
  <line x1="631.066" y1="335.658" x2="602.971" y2="308.104"
        stroke="#3498db" stroke-width="2.5" />
  <line x1="602.971" y1="308.104" x2="592.436" y2="318.909"
        stroke="#3498db" stroke-width="2.5" />
  <line x1="592.436" y1="318.909" x2="622.691" y2="356.188"
        stroke="#3498db" stroke-width="2.5" />
  <line x1="622.691" y1="356.188" x2="611.346" y2="378.879"
        stroke="#3498db" stroke-width="2.5" />
  <line x1="611.346" y1="378.879" x2="569.745" y2="376.988"
        stroke="#3498db" stroke-width="2.5" />
  <line x1="569.745" y1="376.988" x2="551.646" y2="391.036"
        stroke="#3498db" stroke-width="2.5" />
  <circle cx="666.993" cy="543.122" r="6.03462" fill="#e74c3c" stroke="#c0392b" stroke-width="1" />
  <circle cx="134.557" cy="616.868" r="6.64562" fill="#e74c3c" stroke="#c0392b" stroke-width="1" />
  <circle cx="453.587" cy="462.351" r="10.943" fill="#e74c3c" stroke="#c0392b" stroke-width="1" />
  <circle cx="631.066" cy="335.658" r="9.23218" fill="#e74c3c" stroke="#c0392b" stroke-width="1" />
  <circle cx="960.9" cy="320.8" r="12.002" fill="#e74c3c" stroke="#c0392b" stroke-width="1" />
  <circle cx="381.191" cy="774.357" r="6.70672" fill="#e74c3c" stroke="#c0392b" stroke-width="1" />
  <circle cx="452.776" cy="354.297" r="5.13849" fill="#e74c3c" stroke="#c0392b" stroke-width="1" />
  <circle cx="443.052" cy="799.21" r="9.04888" fill="#e74c3c" stroke="#c0392b" stroke-width="1" />
  <circle cx="585.143" cy="657.929" r="12.7352" fill="#e74c3c" stroke="#c0392b" stroke-width="1" />
  <circle cx="1005.74" cy="425.073" r="7.86762" fill="#e74c3c" stroke="#c0392b" stroke-width="1" />
  <circle cx="219.38" cy="342.411" r="6.27902" fill="#e74c3c" stroke="#c0392b" stroke-width="1" />
  <circle cx="539.49" cy="521.511" r="11.7576" fill="#e74c3c" stroke="#c0392b" stroke-width="1" />
  <circle cx="652.676" cy="550.415" r="8.70265" fill="#e74c3c" stroke="#c0392b" stroke-width="1" />
  <circle cx="569.745" cy="376.988" r="7.72505" fill="#e74c3c" stroke="#c0392b" stroke-width="1" />
  <circle cx="696.978" cy="696.288" r="3.60896" fill="#7f8c8d" />
  <circle cx="622.691" cy="356.188" r="9.57841" fill="#e74c3c" stroke="#c0392b" stroke-width="1" />
  <circle cx="91.6058" cy="601.201" r="9.10998" fill="#e74c3c" stroke="#c0392b" stroke-width="1" />
  <circle cx="116.188" cy="344.302" r="11.6354" fill="#e74c3c" stroke="#c0392b" stroke-width="1" />
  <circle cx="857.439" cy="503.142" r="5.01629" fill="#e74c3c" stroke="#c0392b" stroke-width="1" />
  <circle cx="278.269" cy="623.352" r="7.74542" fill="#e74c3c" stroke="#c0392b" stroke-width="1" />
  <circle cx="1067.33" cy="354.567" r="4.42566" fill="#e74c3c" stroke="#c0392b" stroke-width="1" />
  <circle cx="551.106" cy="724.112" r="2.4888" fill="#7f8c8d" />
  <circle cx="1037.08" cy="512.326" r="12.0835" fill="#e74c3c" stroke="#c0392b" stroke-width="1" />
  <circle cx="1129.19" cy="348.894" r="6.99185" fill="#e74c3c" stroke="#c0392b" stroke-width="1" />
  <circle cx="146.173" cy="646.043" r="7.98982" fill="#e74c3c" stroke="#c0392b" stroke-width="1" />
  <circle cx="413.067" cy="625.243" r="12.2057" fill="#e74c3c" stroke="#c0392b" stroke-width="1" />
  <circle cx="944.962" cy="741.671" r="12.4094" fill="#e74c3c" stroke="#c0392b" stroke-width="1" />
  <circle cx="60" cy="604.172" r="6.27902" fill="#e74c3c" stroke="#c0392b" stroke-width="1" />
  <circle cx="1000.88" cy="326.743" r="3.38697" fill="#e74c3c" stroke="#c0392b" stroke-width="1" />
  <circle cx="641.331" cy="529.345" r="8.68228" fill="#e74c3c" stroke="#c0392b" stroke-width="1" />
  <circle cx="171.296" cy="692.776" r="8.78411" fill="#e74c3c" stroke="#c0392b" stroke-width="1" />
  <circle cx="230.185" cy="704.932" r="11.7984" fill="#e74c3c" stroke="#c0392b" stroke-width="1" />
  <circle cx="124.292" cy="478.559" r="4.54582" fill="#7f8c8d" />
  <circle cx="570.825" cy="566.893" r="7.05295" fill="#e74c3c" stroke="#c0392b" stroke-width="1" />
  <circle cx="825.023" cy="467.754" r="6.19552" fill="#7f8c8d" />
  <circle cx="684.552" cy="547.444" r="12.1446" fill="#e74c3c" stroke="#c0392b" stroke-width="1" />
  <circle cx="512.476" cy="821.901" r="2.04073" fill="#7f8c8d" />
  <circle cx="691.306" cy="603.902" r="5.56619" fill="#e74c3c" stroke="#c0392b" stroke-width="1" />
  <circle cx="78.3692" cy="575.808" r="7.94908" fill="#e74c3c" stroke="#c0392b" stroke-width="1" />
  <circle cx="635.388" cy="548.794" r="4.99593" fill="#e74c3c" stroke="#c0392b" stroke-width="1" />
  <circle cx="61.3507" cy="329.175" r="7.03055" fill="#7f8c8d" />
  <circle cx="696.708" cy="648.474" r="10.0468" fill="#e74c3c" stroke="#c0392b" stroke-width="1" />
  <circle cx="104.032" cy="693.047" r="7.56008" fill="#7f8c8d" />
  <circle cx="506.263" cy="440.2" r="3.64969" fill="#7f8c8d" />
  <circle cx="180.75" cy="367.264" r="6.19756" fill="#e74c3c" stroke="#c0392b" stroke-width="1" />
  <circle cx="345.803" cy="788.944" r="13" fill="#e74c3c" stroke="#c0392b" stroke-width="1" />
  <circle cx="301.231" cy="838.919" r="12.9796" fill="#e74c3c" stroke="#c0392b" stroke-width="1" />
  <circle cx="1114.88" cy="435.608" r="3.40733" fill="#e74c3c" stroke="#c0392b" stroke-width="1" />
  <circle cx="1084.08" cy="685.483" r="6.70468" fill="#7f8c8d" />
  <circle cx="573.797" cy="539.61" r="11.8595" fill="#e74c3c" stroke="#c0392b" stroke-width="1" />
  <circle cx="668.884" cy="701.961" r="4.46436" fill="#7f8c8d" />
  <circle cx="329.595" cy="477.749" r="9.57841" fill="#e74c3c" stroke="#c0392b" stroke-width="1" />
  <circle cx="1081.65" cy="582.291" r="8.03055" fill="#e74c3c" stroke="#c0392b" stroke-width="1" />
  <circle cx="848.254" cy="352.946" r="9.68024" fill="#e74c3c" stroke="#c0392b" stroke-width="1" />
  <circle cx="231.536" cy="696.828" r="9.68024" fill="#e74c3c" stroke="#c0392b" stroke-width="1" />
  <circle cx="858.789" cy="483.422" r="11.7984" fill="#e74c3c" stroke="#c0392b" stroke-width="1" />
  <circle cx="575.688" cy="624.432" r="11.5132" fill="#e74c3c" stroke="#c0392b" stroke-width="1" />
  <circle cx="1139.73" cy="546.363" r="12.8778" fill="#e74c3c" stroke="#c0392b" stroke-width="1" />
  <circle cx="628.094" cy="735.458" r="11.2688" fill="#e74c3c" stroke="#c0392b" stroke-width="1" />
  <circle cx="1038.43" cy="349.705" r="11.4725" fill="#e74c3c" stroke="#c0392b" stroke-width="1" />
  <circle cx="1134.33" cy="365.643" r="7.84725" fill="#e74c3c" stroke="#c0392b" stroke-width="1" />
  <circle cx="528.414" cy="807.314" r="7.15479" fill="#e74c3c" stroke="#c0392b" stroke-width="1" />
  <circle cx="860.14" cy="525.563" r="10.9226" fill="#e74c3c" stroke="#c0392b" stroke-width="1" />
  <circle cx="68.1041" cy="455.868" r="8.09165" fill="#e74c3c" stroke="#c0392b" stroke-width="1" />
  <circle cx="928.484" cy="627.944" r="3.0998" fill="#7f8c8d" />
  <circle cx="506.533" cy="328.364" r="6.68635" fill="#e74c3c" stroke="#c0392b" stroke-width="1" />
  <circle cx="1120.55" cy="480.18" r="8.58045" fill="#e74c3c" stroke="#c0392b" stroke-width="1" />
  <circle cx="324.462" cy="432.906" r="6.99185" fill="#e74c3c" stroke="#c0392b" stroke-width="1" />
  <circle cx="610.535" cy="655.228" r="9.98574" fill="#e74c3c" stroke="#c0392b" stroke-width="1" />
  <circle cx="699.95" cy="454.247" r="7.80448" fill="#7f8c8d" />
  <circle cx="602.971" cy="308.104" r="8.51935" fill="#e74c3c" stroke="#c0392b" stroke-width="1" />
  <circle cx="317.169" cy="421.291" r="6.99185" fill="#e74c3c" stroke="#c0392b" stroke-width="1" />
  <circle cx="118.619" cy="361.321" r="2.04073" fill="#7f8c8d" />
  <circle cx="248.554" cy="710.065" r="7.64358" fill="#e74c3c" stroke="#c0392b" stroke-width="1" />
  <circle cx="410.635" cy="503.682" r="4.4053" fill="#e74c3c" stroke="#c0392b" stroke-width="1" />
  <circle cx="1068.68" cy="813.797" r="8.55804" fill="#7f8c8d" />
  <circle cx="1055.72" cy="740.05" r="4.13849" fill="#7f8c8d" />
  <circle cx="675.908" cy="761.661" r="10.7597" fill="#e74c3c" stroke="#c0392b" stroke-width="1" />
  <circle cx="370.655" cy="816.498" r="12.6538" fill="#e74c3c" stroke="#c0392b" stroke-width="1" />
  <circle cx="537.599" cy="805.963" r="11.0652" fill="#e74c3c" stroke="#c0392b" stroke-width="1" />
  <circle cx="241.261" cy="827.574" r="6.15682" fill="#e74c3c" stroke="#c0392b" stroke-width="1" />
  <circle cx="722.101" cy="716.818" r="4.30143" fill="#7f8c8d" />
  <circle cx="601.081" cy="703.852" r="11.2077" fill="#e74c3c" stroke="#c0392b" stroke-width="1" />
  <circle cx="873.647" cy="505.843" r="2.3055" fill="#7f8c8d" />
  <circle cx="693.467" cy="302.161" r="5.56415" fill="#7f8c8d" />
  <circle cx="428.194" cy="448.034" r="5.11813" fill="#e74c3c" stroke="#c0392b" stroke-width="1" />
  <circle cx="973.057" cy="581.211" r="8.43788" fill="#e74c3c" stroke="#c0392b" stroke-width="1" />
  <circle cx="563.532" cy="717.359" r="11.5132" fill="#e74c3c" stroke="#c0392b" stroke-width="1" />
  <circle cx="960.09" cy="685.483" r="10.6986" fill="#e74c3c" stroke="#c0392b" stroke-width="1" />
  <circle cx="922.811" cy="779.76" r="12.7963" fill="#e74c3c" stroke="#c0392b" stroke-width="1" />
  <circle cx="266.653" cy="443.442" r="11.0041" fill="#e74c3c" stroke="#c0392b" stroke-width="1" />
  <circle cx="560.83" cy="807.584" r="8.33605" fill="#e74c3c" stroke="#c0392b" stroke-width="1" />
  <circle cx="68.9145" cy="504.492" r="2.93686" fill="#7f8c8d" />
  <circle cx="1137.57" cy="774.897" r="2.63136" fill="#7f8c8d" />
  <circle cx="1124.87" cy="467.484" r="3.46843" fill="#e74c3c" stroke="#c0392b" stroke-width="1" />
  <circle cx="969.815" cy="508.004" r="9.15071" fill="#e74c3c" stroke="#c0392b" stroke-width="1" />
  <circle cx="105.383" cy="462.621" r="2.83503" fill="#7f8c8d" />
  <circle cx="694.817" cy="792.726" r="5.44399" fill="#e74c3c" stroke="#c0392b" stroke-width="1" />
  <circle cx="360.93" cy="492.066" r="8.47862" fill="#e74c3c" stroke="#c0392b" stroke-width="1" />
  <circle cx="1028.16" cy="500.44" r="2" fill="#7f8c8d" />
  <circle cx="90.2551" cy="379.69" r="6.21792" fill="#e74c3c" stroke="#c0392b" stroke-width="1" />
  <circle cx="998.989" cy="323.232" r="6.58452" fill="#e74c3c" stroke="#c0392b" stroke-width="1" />
  <circle cx="94.3072" cy="492.336" r="9.15071" fill="#e74c3c" stroke="#c0392b" stroke-width="1" />
  <circle cx="934.967" cy="755.718" r="11.9409" fill="#e74c3c" stroke="#c0392b" stroke-width="1" />
  <circle cx="557.049" cy="629.025" r="7.88798" fill="#e74c3c" stroke="#c0392b" stroke-width="1" />
  <circle cx="234.777" cy="773.007" r="9.51731" fill="#e74c3c" stroke="#c0392b" stroke-width="1" />
  <circle cx="844.202" cy="600.93" r="4.20163" fill="#e74c3c" stroke="#c0392b" stroke-width="1" />
  <circle cx="79.1796" cy="340.52" r="2" fill="#7f8c8d" />
  <circle cx="94.3072" cy="837.569" r="6.46029" fill="#7f8c8d" />
  <circle cx="675.098" cy="531.506" r="8.17312" fill="#e74c3c" stroke="#c0392b" stroke-width="1" />
  <circle cx="926.053" cy="566.083" r="7.92872" fill="#e74c3c" stroke="#c0392b" stroke-width="1" />
  <circle cx="649.435" cy="640.1" r="7.48065" fill="#e74c3c" stroke="#c0392b" stroke-width="1" />
  <circle cx="287.724" cy="602.551" r="7.05295" fill="#e74c3c" stroke="#c0392b" stroke-width="1" />
  <circle cx="957.659" cy="712.226" r="2.44807" fill="#7f8c8d" />
  <circle cx="986.293" cy="772.466" r="7.23625" fill="#e74c3c" stroke="#c0392b" stroke-width="1" />
  <circle cx="261.251" cy="344.572" r="5.26069" fill="#e74c3c" stroke="#c0392b" stroke-width="1" />
  <circle cx="326.893" cy="546.633" r="6.29939" fill="#e74c3c" stroke="#c0392b" stroke-width="1" />
  <circle cx="198.039" cy="688.724" r="7.50102" fill="#e74c3c" stroke="#c0392b" stroke-width="1" />
  <circle cx="384.702" cy="510.165" r="3.77393" fill="#e74c3c" stroke="#c0392b" stroke-width="1" />
  <circle cx="798.279" cy="656.848" r="9.88391" fill="#e74c3c" stroke="#c0392b" stroke-width="1" />
  <circle cx="323.382" cy="441.281" r="3.65173" fill="#e74c3c" stroke="#c0392b" stroke-width="1" />
  <circle cx="287.994" cy="562.301" r="12.389" fill="#e74c3c" stroke="#c0392b" stroke-width="1" />
  <circle cx="174.267" cy="432.636" r="6.39919" fill="#7f8c8d" />
  <circle cx="412.256" cy="702.231" r="7.62322" fill="#e74c3c" stroke="#c0392b" stroke-width="1" />
  <circle cx="851.496" cy="574.457" r="12.6741" fill="#e74c3c" stroke="#c0392b" stroke-width="1" />
  <circle cx="276.648" cy="473.157" r="11.554" fill="#e74c3c" stroke="#c0392b" stroke-width="1" />
  <circle cx="551.646" cy="391.036" r="10.5804" fill="#2ecc71" stroke="#27ae60" stroke-width="2" />
  <circle cx="934.157" cy="795.428" r="6.89002" fill="#e74c3c" stroke="#c0392b" stroke-width="1" />
  <circle cx="891.206" cy="563.652" r="6.64562" fill="#e74c3c" stroke="#c0392b" stroke-width="1" />
  <circle cx="867.434" cy="705.473" r="3.50713" fill="#7f8c8d" />
  <circle cx="994.397" cy="498.819" r="2.38697" fill="#7f8c8d" />
  <circle cx="209.385" cy="539.88" r="10.4949" fill="#e74c3c" stroke="#c0392b" stroke-width="1" />
  <circle cx="554.617" cy="358.349" r="4.48676" fill="#e74c3c" stroke="#c0392b" stroke-width="1" />
  <circle cx="198.309" cy="363.482" r="12.0428" fill="#e74c3c" stroke="#c0392b" stroke-width="1" />
  <circle cx="444.132" cy="435.878" r="2.34623" fill="#7f8c8d" />
  <circle cx="134.287" cy="489.095" r="2.08147" fill="#7f8c8d" />
  <circle cx="270.975" cy="755.988" r="8.03055" fill="#e74c3c" stroke="#c0392b" stroke-width="1" />
  <circle cx="986.833" cy="834.057" r="10.0061" fill="#e74c3c" stroke="#c0392b" stroke-width="1" />
  <circle cx="520.31" cy="566.353" r="7.35845" fill="#e74c3c" stroke="#c0392b" stroke-width="1" />
  <circle cx="513.287" cy="501.251" r="4.46436" fill="#7f8c8d" />
  <circle cx="947.394" cy="385.363" r="7.41955" fill="#e74c3c" stroke="#c0392b" stroke-width="1" />
  <circle cx="626.203" cy="840" r="8.90631" fill="#e74c3c" stroke="#c0392b" stroke-width="1" />
  <circle cx="362.011" cy="806.773" r="6.84929" fill="#e74c3c" stroke="#c0392b" stroke-width="1" />
  <circle cx="789.365" cy="598.499" r="6.23829" fill="#e74c3c" stroke="#c0392b" stroke-width="1" />
  <circle cx="597.569" cy="608.224" r="5.05499" fill="#7f8c8d" />
  <circle cx="611.346" cy="378.879" r="11.3503" fill="#e74c3c" stroke="#c0392b" stroke-width="1" />
  <circle cx="772.616" cy="817.849" r="2.50916" fill="#7f8c8d" />
  <circle cx="352.556" cy="352.406" r="4.95519" fill="#e74c3c" stroke="#c0392b" stroke-width="1" />
  <circle cx="1092.73" cy="415.888" r="10.1487" fill="#e74c3c" stroke="#c0392b" stroke-width="1" />
  <circle cx="974.677" cy="316.208" r="5.68839" fill="#e74c3c" stroke="#c0392b" stroke-width="1" />
  <circle cx="413.337" cy="337.819" r="12.8778" fill="#e74c3c" stroke="#c0392b" stroke-width="1" />
  <circle cx="232.886" cy="659.82" r="9.17108" fill="#e74c3c" stroke="#c0392b" stroke-width="1" />
  <circle cx="845.283" cy="369.425" r="2.1222" fill="#7f8c8d" />
  <circle cx="793.417" cy="744.912" r="8.86558" fill="#e74c3c" stroke="#c0392b" stroke-width="1" />
  <circle cx="1128.65" cy="466.403" r="4.26273" fill="#e74c3c" stroke="#c0392b" stroke-width="1" />
  <circle cx="721.831" cy="344.302" r="6.17719" fill="#e74c3c" stroke="#c0392b" stroke-width="1" />
  <circle cx="139.69" cy="665.223" r="11.7373" fill="#e74c3c" stroke="#c0392b" stroke-width="1" />
  <circle cx="515.988" cy="629.025" r="6.27902" fill="#e74c3c" stroke="#c0392b" stroke-width="1" />
  <circle cx="361.471" cy="583.912" r="4.32179" fill="#7f8c8d" />
  <circle cx="791.796" cy="611.736" r="7.54175" fill="#e74c3c" stroke="#c0392b" stroke-width="1" />
  <circle cx="593.787" cy="573.647" r="5.85132" fill="#e74c3c" stroke="#c0392b" stroke-width="1" />
  <circle cx="592.436" cy="318.909" r="5.24033" fill="#e74c3c" stroke="#c0392b" stroke-width="1" />
  <circle cx="303.122" cy="829.735" r="12.8371" fill="#e74c3c" stroke="#c0392b" stroke-width="1" />
  <circle cx="890.935" cy="757.609" r="11.4725" fill="#e74c3c" stroke="#c0392b" stroke-width="1" />
  <circle cx="236.398" cy="710.335" r="4.0387" fill="#e74c3c" stroke="#c0392b" stroke-width="1" />
  <circle cx="907.414" cy="808.124" r="11.2485" fill="#e74c3c" stroke="#c0392b" stroke-width="1" />
  <circle cx="1011.69" cy="648.474" r="8.66191" fill="#e74c3c" stroke="#c0392b" stroke-width="1" />
  <circle cx="720.21" cy="396.438" r="7.56212" fill="#e74c3c" stroke="#c0392b" stroke-width="1" />
  <circle cx="558.669" cy="420.48" r="2.22403" fill="#7f8c8d" />
  <circle cx="522.201" cy="350.515" r="5.87169" fill="#e74c3c" stroke="#c0392b" stroke-width="1" />
  <circle cx="823.672" cy="404.272" r="3.91446" fill="#7f8c8d" />
  <circle cx="491.946" cy="670.355" r="12.5112" fill="#e74c3c" stroke="#c0392b" stroke-width="1" />
  <circle cx="1098.94" cy="572.836" r="11.9206" fill="#e74c3c" stroke="#c0392b" stroke-width="1" />
  <circle cx="303.932" cy="693.047" r="4.13849" fill="#7f8c8d" />
  <circle cx="900.93" cy="436.958" r="9.10998" fill="#e74c3c" stroke="#c0392b" stroke-width="1" />
  <circle cx="364.982" cy="822.981" r="7.27699" fill="#e74c3c" stroke="#c0392b" stroke-width="1" />
  <circle cx="945.773" cy="683.322" r="12.389" fill="#e74c3c" stroke="#c0392b" stroke-width="1" />
  <circle cx="451.156" cy="734.107" r="11.9206" fill="#e74c3c" stroke="#c0392b" stroke-width="1" />
  <circle cx="243.962" cy="368.884" r="7.17515" fill="#e74c3c" stroke="#c0392b" stroke-width="1" />
  <circle cx="1072.2" cy="553.657" r="7.82688" fill="#e74c3c" stroke="#c0392b" stroke-width="1" />
  <circle cx="943.882" cy="689.805" r="12.3279" fill="#e74c3c" stroke="#c0392b" stroke-width="1" />
  <circle cx="926.323" cy="510.975" r="3.24236" fill="#7f8c8d" />
  <circle cx="490.325" cy="555.818" r="12.0631" fill="#e74c3c" stroke="#c0392b" stroke-width="1" />
  <circle cx="944.422" cy="420.48" r="4.48473" fill="#7f8c8d" />
  <circle cx="761.811" cy="355.648" r="7.54175" fill="#e74c3c" stroke="#c0392b" stroke-width="1" />
  <circle cx="1011.69" cy="541.231" r="5.28106" fill="#e74c3c" stroke="#c0392b" stroke-width="1" />
  <circle cx="829.615" cy="748.964" r="8.51935" fill="#e74c3c" stroke="#c0392b" stroke-width="1" />
  <circle cx="819.35" cy="833.517" r="3.56823" fill="#7f8c8d" />
  <circle cx="497.619" cy="338.629" r="12.2872" fill="#e74c3c" stroke="#c0392b" stroke-width="1" />
  <circle cx="703.192" cy="396.438" r="9.74134" fill="#e74c3c" stroke="#c0392b" stroke-width="1" />
  <circle cx="239.64" cy="814.337" r="6.46232" fill="#e74c3c" stroke="#c0392b" stroke-width="1" />
  <circle cx="280.16" cy="433.717" r="10.4134" fill="#e74c3c" stroke="#c0392b" stroke-width="1" />
  <circle cx="393.347" cy="346.733" r="8.09165" fill="#e74c3c" stroke="#c0392b" stroke-width="1" />
  <circle cx="215.868" cy="714.117" r="11.1059" fill="#e74c3c" stroke="#c0392b" stroke-width="1" />
  <circle cx="987.914" cy="682.781" r="8.88595" fill="#e74c3c" stroke="#c0392b" stroke-width="1" />
  <circle cx="567.854" cy="405.083" r="3.71079" fill="#7f8c8d" />
  <circle cx="122.671" cy="744.912" r="5.91039" fill="#7f8c8d" />
  <circle cx="128.074" cy="618.219" r="10.0876" fill="#e74c3c" stroke="#c0392b" stroke-width="1" />
  <circle cx="178.589" cy="678.459" r="8.84521" fill="#e74c3c" stroke="#c0392b" stroke-width="1" />
  <circle cx="990.615" cy="381.041" r="8.25458" fill="#e74c3c" stroke="#c0392b" stroke-width="1" />
</svg>
